# WaveFront *.obj file (generated by Autodesk ATF)

mtllib 44a126e8-131a-4242-ba42-4891b8e01076.mtl

g Body1

v -250.000000 -4.575965 108.677984
v -250.000000 -4.549790 110.885202
v -250.000000 -4.511353 111.515675
v -250.000000 -4.484232 111.710286
v -250.000000 -4.468518 111.777301
v -250.000000 -4.451306 111.824105
v -250.000000 -4.442124 111.839928
v -250.000000 -4.432552 111.850701
v -250.000000 -4.427617 111.854194
v -250.000000 -4.422583 111.856426
v -250.000000 -4.417448 111.857396
v -250.000000 -4.412213 111.857106
v -250.000000 -4.406876 111.855556
v -250.000000 -4.401436 111.852747
v -250.000000 -4.390249 111.843352
v -250.000000 -4.366623 111.809483
v -250.000000 -4.254840 111.474257
v -250.000000 -3.943375 109.869373
v -250.000000 -3.509620 107.094389
v -250.000000 -2.954030 103.271825
v -250.000000 -1.506938 93.083093
v -250.000000 0.289826 80.601707
v -250.000000 2.259667 67.103822
v -250.000000 5.823666 40.293008
v -250.000000 7.614684 15.127441
v -250.000000 7.651809 3.544344
v -250.000000 7.148979 -7.082008
v -250.000000 6.186112 -16.520209
v -250.000000 4.866541 -24.565048
v -250.000000 3.300903 -31.062482
v -250.000000 1.590548 -35.938077
v -250.000000 -0.188332 -39.222552
v -250.000000 -1.086040 -40.296658
v -250.000000 -1.980027 -41.001936
v -250.000000 -2.422714 -41.214287
v -250.000000 -2.860507 -41.329615
v -250.000000 -3.291586 -41.343722
v -250.000000 -3.713919 -41.251254
v -250.000000 -4.125284 -41.045805
v -250.000000 -4.523304 -40.720018
v -250.000000 -4.905488 -40.265782
v -250.000000 -5.269326 -39.674594
v -250.000000 -5.932416 -38.047817
v -250.000000 -6.495838 -35.779045
v -250.000000 -7.282964 -29.156852
v -250.000000 -7.602858 -19.677118
v -250.000000 -7.501522 -7.489236
v -250.000000 -7.077069 7.018741
v -250.000000 -6.458896 23.260541
v -250.000000 -5.188531 57.830061
v -250.000000 -4.763212 74.331931
v -250.000000 -4.553566 88.980216
v -250.000000 -4.534187 100.766938
v -250.000000 -4.560359 105.270263
v 250.000000 -4.575965 108.677984
v 250.000000 -4.549790 110.885202
v 250.000000 -4.511353 111.515675
v 250.000000 -4.484232 111.710286
v 250.000000 -4.468518 111.777301
v 250.000000 -4.451306 111.824105
v 250.000000 -4.442124 111.839928
v 250.000000 -4.432552 111.850701
v 250.000000 -4.427617 111.854194
v 250.000000 -4.422583 111.856426
v 250.000000 -4.417448 111.857396
v 250.000000 -4.412213 111.857106
v 250.000000 -4.406876 111.855556
v 250.000000 -4.401436 111.852747
v 250.000000 -4.390249 111.843352
v 250.000000 -4.366623 111.809483
v 250.000000 -4.254840 111.474257
v 250.000000 -3.943375 109.869373
v 250.000000 -3.509620 107.094389
v 250.000000 -2.954030 103.271825
v 250.000000 -1.506938 93.083093
v 250.000000 0.289826 80.601707
v 250.000000 2.259667 67.103822
v 250.000000 5.823666 40.293008
v 250.000000 7.614684 15.127441
v 250.000000 7.651809 3.544344
v 250.000000 7.148979 -7.082008
v 250.000000 6.186112 -16.520209
v 250.000000 4.866541 -24.565048
v 250.000000 3.300903 -31.062482
v 250.000000 1.590548 -35.938077
v 250.000000 -0.188332 -39.222552
v 250.000000 -1.086040 -40.296658
v 250.000000 -1.980027 -41.001936
v 250.000000 -2.422714 -41.214287
v 250.000000 -2.860507 -41.329615
v 250.000000 -3.291586 -41.343722
v 250.000000 -3.713919 -41.251254
v 250.000000 -4.125284 -41.045805
v 250.000000 -4.523304 -40.720018
v 250.000000 -4.905488 -40.265782
v 250.000000 -5.269326 -39.674594
v 250.000000 -5.932416 -38.047817
v 250.000000 -6.495838 -35.779045
v 250.000000 -7.282964 -29.156852
v 250.000000 -7.602858 -19.677118
v 250.000000 -7.501522 -7.489236
v 250.000000 -7.077069 7.018741
v 250.000000 -6.458896 23.260541
v 250.000000 -5.188531 57.830061
v 250.000000 -4.763212 74.331931
v 250.000000 -4.553566 88.980216
v 250.000000 -4.534187 100.766938
v 250.000000 -4.560359 105.270263
vt 7.538287 -0.461680 0.000000
vt 7.597192 -0.432185 0.000000
vt 7.317565 -0.464297 0.000000
vt 7.436704 -0.401038 0.000000
vt 6.976793 -0.462737 0.000000
vt 7.159206 -0.357663 0.000000
vt 6.526460 -0.460119 0.000000
vt 6.776949 -0.302104 0.000000
vt 5.347788 -0.462057 0.000000
vt 5.758076 -0.157395 0.000000
vt 4.509937 0.022282 0.000000
vt 7.601334 -0.457836 0.000000
vt 7.635477 -0.447922 0.000000
vt 7.635322 -0.447388 0.000000
vt 7.635041 -0.446844 0.000000
vt 7.620795 -0.455124 0.000000
vt 7.627497 -0.453553 0.000000
vt 7.632177 -0.451831 0.000000
vt 7.633759 -0.450913 0.000000
vt 7.634837 -0.449956 0.000000
vt 7.635186 -0.449463 0.000000
vt 7.635409 -0.448959 0.000000
vt 7.635506 -0.448446 0.000000
vt 7.634102 -0.445726 0.000000
vt 7.630715 -0.443363 0.000000
vt 3.160149 0.219266 0.000000
vt -7.684606 -0.335859 0.000000
vt -7.675359 -0.378093 0.000000
vt -7.654814 -0.419229 0.000000
vt 0.479067 0.575666 0.000000
vt -7.144041 0.152354 0.000000
vt -7.472489 -0.025534 0.000000
vt -7.579899 -0.115305 0.000000
vt -2.037489 0.754768 0.000000
vt -4.258434 0.708197 0.000000
vt -5.202254 0.611910 0.000000
vt -6.006738 0.479953 0.000000
vt -3.195799 0.758480 0.000000
vt -6.656482 0.323390 0.000000
vt -7.650427 -0.204703 0.000000
vt -7.671662 -0.248972 0.000000
vt -7.683195 -0.292751 0.000000
vt -7.622235 -0.459031 0.000000
vt 3.882960 -0.483022 0.000000
vt 2.232773 -0.525554 0.000000
vt -1.224179 -0.652590 0.000000
vt -2.848359 -0.714408 0.000000
vt -4.299157 -0.756853 0.000000
vt -7.576812 -0.497250 0.000000
vt -7.517693 -0.533633 0.000000
vt -7.355015 -0.599942 0.000000
vt -5.517945 -0.766987 0.000000
vt -7.128138 -0.656285 0.000000
vt -6.465919 -0.734997 0.000000
vt 14.180854 25.000000 0.000000
vt 13.959278 25.000000 0.000000
vt 14.180854 -25.000000 0.000000
vt 13.959278 -25.000000 0.000000
vt 13.848490 25.000000 0.000000
vt 13.848490 -25.000000 0.000000
vt 13.793096 25.000000 0.000000
vt 13.793096 -25.000000 0.000000
vt 13.765399 25.000000 0.000000
vt 13.765399 -25.000000 0.000000
vt 13.737702 25.000000 0.000000
vt 13.737702 -25.000000 0.000000
vt 13.723854 25.000000 0.000000
vt 13.723854 -25.000000 0.000000
vt 13.710005 25.000000 0.000000
vt 13.710005 -25.000000 0.000000
vt 13.703081 25.000000 0.000000
vt 13.703081 -25.000000 0.000000
vt 13.696157 25.000000 0.000000
vt 13.696157 -25.000000 0.000000
vt 13.689232 25.000000 0.000000
vt 13.689232 -25.000000 0.000000
vt 13.682308 25.000000 0.000000
vt 13.682308 -25.000000 0.000000
vt 13.675384 25.000000 0.000000
vt 13.675384 -25.000000 0.000000
vt 13.668460 25.000000 0.000000
vt 13.668460 -25.000000 0.000000
vt 13.654611 25.000000 0.000000
vt 13.654611 -25.000000 0.000000
vt 13.626914 25.000000 0.000000
vt 13.626914 -25.000000 0.000000
vt 13.516126 25.000000 0.000000
vt 13.516126 -25.000000 0.000000
vt 13.294550 25.000000 0.000000
vt 13.294550 -25.000000 0.000000
vt 13.072975 25.000000 0.000000
vt 13.072975 -25.000000 0.000000
vt 12.851399 25.000000 0.000000
vt 12.851399 -25.000000 0.000000
vt 12.408247 25.000000 0.000000
vt 12.408247 -25.000000 0.000000
vt 11.965095 25.000000 0.000000
vt 11.965095 -25.000000 0.000000
vt 11.521944 25.000000 0.000000
vt 11.521944 -25.000000 0.000000
vt 10.635640 25.000000 0.000000
vt 10.635640 -25.000000 0.000000
vt 9.749337 25.000000 0.000000
vt 9.749337 -25.000000 0.000000
vt 9.306185 25.000000 0.000000
vt 9.306185 -25.000000 0.000000
vt 8.863034 25.000000 0.000000
vt 8.863034 -25.000000 0.000000
vt 8.419882 25.000000 0.000000
vt 8.419882 -25.000000 0.000000
vt 7.976730 25.000000 0.000000
vt 7.976730 -25.000000 0.000000
vt 7.533579 25.000000 0.000000
vt 7.533579 -25.000000 0.000000
vt 7.090427 25.000000 0.000000
vt 7.090427 -25.000000 0.000000
vt 6.647275 25.000000 0.000000
vt 6.647275 -25.000000 0.000000
vt 6.425699 25.000000 0.000000
vt 6.425699 -25.000000 0.000000
vt 6.204124 25.000000 0.000000
vt 6.204124 -25.000000 0.000000
vt 6.093336 25.000000 0.000000
vt 6.093336 -25.000000 0.000000
vt 5.982548 25.000000 0.000000
vt 5.982548 -25.000000 0.000000
vt 5.871760 25.000000 0.000000
vt 5.871760 -25.000000 0.000000
vt 5.760972 25.000000 0.000000
vt 5.760972 -25.000000 0.000000
vt 5.650184 25.000000 0.000000
vt 5.650184 -25.000000 0.000000
vt 5.539396 25.000000 0.000000
vt 5.539396 -25.000000 0.000000
vt 5.428608 25.000000 0.000000
vt 5.428608 -25.000000 0.000000
vt 5.317820 25.000000 0.000000
vt 5.317820 -25.000000 0.000000
vt 5.096244 25.000000 0.000000
vt 5.096244 -25.000000 0.000000
vt 4.874668 25.000000 0.000000
vt 4.874668 -25.000000 0.000000
vt 4.431517 25.000000 0.000000
vt 4.431517 -25.000000 0.000000
vt 3.988365 25.000000 0.000000
vt 3.988365 -25.000000 0.000000
vt 3.545213 25.000000 0.000000
vt 3.545213 -25.000000 0.000000
vt 3.102062 25.000000 0.000000
vt 3.102062 -25.000000 0.000000
vt 2.658910 25.000000 0.000000
vt 2.658910 -25.000000 0.000000
vt 1.772607 25.000000 0.000000
vt 1.772607 -25.000000 0.000000
vt 1.329455 25.000000 0.000000
vt 1.329455 -25.000000 0.000000
vt 0.886303 25.000000 0.000000
vt 0.886303 -25.000000 0.000000
vt 0.443152 25.000000 0.000000
vt 0.443152 -25.000000 0.000000
vt 0.221576 25.000000 0.000000
vt 0.221576 -25.000000 0.000000
vt 0.000000 25.000000 0.000000
vt 0.000000 -25.000000 0.000000
vt -6.976793 -0.462737 0.000000
vt -7.436704 -0.401038 0.000000
vt -7.317565 -0.464297 0.000000
vt -7.597192 -0.432185 0.000000
vt -7.538287 -0.461680 0.000000
vt -7.630715 -0.443363 0.000000
vt -7.634102 -0.445726 0.000000
vt -7.159206 -0.357663 0.000000
vt -6.526460 -0.460119 0.000000
vt -6.776949 -0.302104 0.000000
vt -5.758076 -0.157395 0.000000
vt -5.347788 -0.462057 0.000000
vt -3.882960 -0.483022 0.000000
vt -2.232773 -0.525554 0.000000
vt 7.622235 -0.459031 0.000000
vt -4.509937 0.022282 0.000000
vt 7.654814 -0.419229 0.000000
vt 7.675359 -0.378093 0.000000
vt 1.224179 -0.652590 0.000000
vt 2.848359 -0.714408 0.000000
vt 4.299157 -0.756853 0.000000
vt 5.517945 -0.766987 0.000000
vt 7.355015 -0.599942 0.000000
vt 7.517693 -0.533633 0.000000
vt 7.576812 -0.497250 0.000000
vt 6.465919 -0.734997 0.000000
vt 7.128138 -0.656285 0.000000
vt 7.684606 -0.335859 0.000000
vt -3.160149 0.219266 0.000000
vt 7.683195 -0.292751 0.000000
vt 7.671662 -0.248972 0.000000
vt 7.650427 -0.204703 0.000000
vt 7.579899 -0.115305 0.000000
vt 7.472489 -0.025534 0.000000
vt 7.144041 0.152354 0.000000
vt -0.479067 0.575666 0.000000
vt 6.656482 0.323390 0.000000
vt 6.006738 0.479953 0.000000
vt 5.202254 0.611910 0.000000
vt 4.258434 0.708197 0.000000
vt 2.037489 0.754768 0.000000
vt 3.195799 0.758480 0.000000
vt -7.635041 -0.446844 0.000000
vt -7.635322 -0.447388 0.000000
vt -7.635477 -0.447922 0.000000
vt -7.601334 -0.457836 0.000000
vt -7.635506 -0.448446 0.000000
vt -7.635409 -0.448959 0.000000
vt -7.635186 -0.449463 0.000000
vt -7.634837 -0.449956 0.000000
vt -7.633759 -0.450913 0.000000
vt -7.632177 -0.451831 0.000000
vt -7.627497 -0.453553 0.000000
vt -7.620795 -0.455124 0.000000
vn -0.100000 0.000000 0.000000
vn -0.100000 0.000000 0.000000
vn -0.100000 0.000000 0.000000
vn -0.100000 0.000000 0.000000
vn -0.100000 0.000000 0.000000
vn -0.100000 0.000000 0.000000
vn -0.100000 0.000000 0.000000
vn -0.100000 0.000000 0.000000
vn -0.100000 0.000000 0.000000
vn -0.100000 0.000000 0.000000
vn -0.100000 0.000000 0.000000
vn -0.100000 0.000000 0.000000
vn -0.100000 0.000000 0.000000
vn -0.100000 0.000000 0.000000
vn -0.100000 0.000000 0.000000
vn -0.100000 0.000000 0.000000
vn -0.100000 0.000000 0.000000
vn -0.100000 0.000000 0.000000
vn -0.100000 0.000000 0.000000
vn -0.100000 0.000000 0.000000
vn -0.100000 0.000000 0.000000
vn -0.100000 0.000000 0.000000
vn -0.100000 0.000000 0.000000
vn -0.100000 0.000000 0.000000
vn -0.100000 0.000000 0.000000
vn -0.100000 0.000000 0.000000
vn -0.100000 0.000000 0.000000
vn -0.100000 0.000000 0.000000
vn -0.100000 0.000000 0.000000
vn -0.100000 0.000000 0.000000
vn -0.100000 0.000000 0.000000
vn -0.100000 0.000000 0.000000
vn -0.100000 0.000000 0.000000
vn -0.100000 0.000000 0.000000
vn -0.100000 0.000000 0.000000
vn -0.100000 0.000000 0.000000
vn -0.100000 0.000000 0.000000
vn -0.100000 0.000000 0.000000
vn -0.100000 0.000000 0.000000
vn -0.100000 0.000000 0.000000
vn -0.100000 0.000000 0.000000
vn -0.100000 0.000000 0.000000
vn -0.100000 0.000000 0.000000
vn -0.100000 0.000000 0.000000
vn -0.100000 0.000000 0.000000
vn -0.100000 0.000000 0.000000
vn -0.100000 0.000000 0.000000
vn -0.100000 0.000000 0.000000
vn -0.100000 0.000000 0.000000
vn -0.100000 0.000000 0.000000
vn -0.100000 0.000000 0.000000
vn -0.100000 0.000000 0.000000
vn -0.100000 0.000000 0.000000
vn -0.100000 0.000000 0.000000
vn 0.000000 -0.100000 0.000000
vn 0.000000 -0.099934 0.003636
vn 0.000000 -0.100000 0.000000
vn 0.000000 -0.099934 0.003636
vn 0.000000 -0.099467 0.010308
vn 0.000000 -0.099467 0.010308
vn 0.000000 -0.098165 0.019068
vn 0.000000 -0.098165 0.019068
vn 0.000000 -0.096065 0.027777
vn 0.000000 -0.096065 0.027777
vn 0.000000 -0.089805 0.043989
vn 0.000000 -0.089805 0.043989
vn 0.000000 -0.081727 0.057626
vn 0.000000 -0.081727 0.057626
vn 0.000000 -0.064510 0.076410
vn 0.000000 -0.064510 0.076410
vn 0.000000 -0.049800 0.086718
vn 0.000000 -0.049800 0.086718
vn 0.000000 -0.030036 0.095383
vn 0.000000 -0.030036 0.095383
vn 0.000000 -0.006547 0.099785
vn 0.000000 -0.006547 0.099785
vn 0.000000 0.017149 0.098519
vn 0.000000 0.017149 0.098519
vn 0.000000 0.037505 0.092701
vn 0.000000 0.037505 0.092701
vn 0.000000 0.053082 0.084748
vn 0.000000 0.053082 0.084748
vn 0.000000 0.072258 0.069129
vn 0.000000 0.072258 0.069129
vn 0.000000 0.087352 0.048679
vn 0.000000 0.087352 0.048679
vn 0.000000 0.096896 0.024722
vn 0.000000 0.096896 0.024722
vn 0.000000 0.098609 0.016621
vn 0.000000 0.098609 0.016621
vn 0.000000 0.098907 0.014748
vn 0.000000 0.098907 0.014748
vn 0.000000 0.098993 0.014158
vn 0.000000 0.098993 0.014158
vn 0.000000 0.099001 0.014100
vn 0.000000 0.099001 0.014100
vn 0.000000 0.098959 0.014389
vn 0.000000 0.098959 0.014389
vn 0.000000 0.098958 0.014397
vn 0.000000 0.098958 0.014397
vn 0.000000 0.099405 0.010893
vn 0.000000 0.099405 0.010893
vn 0.000000 0.099963 0.002705
vn 0.000000 0.099963 0.002705
vn 0.000000 0.099976 -0.002183
vn 0.000000 0.099976 -0.002183
vn 0.000000 0.099725 -0.007415
vn 0.000000 0.099725 -0.007415
vn 0.000000 0.099138 -0.013105
vn 0.000000 0.099138 -0.013105
vn 0.000000 0.098051 -0.019645
vn 0.000000 0.098051 -0.019645
vn 0.000000 0.096030 -0.027898
vn 0.000000 0.096030 -0.027898
vn 0.000000 0.091816 -0.039622
vn 0.000000 0.091816 -0.039622
vn 0.000000 0.081456 -0.058008
vn 0.000000 0.081456 -0.058008
vn 0.000000 0.070412 -0.071008
vn 0.000000 0.070412 -0.071008
vn 0.000000 0.050449 -0.086342
vn 0.000000 0.050449 -0.086342
vn 0.000000 0.034971 -0.093686
vn 0.000000 0.034971 -0.093686
vn 0.000000 0.014901 -0.098884
vn 0.000000 0.014901 -0.098884
vn 0.000000 -0.008909 -0.099602
vn 0.000000 -0.008909 -0.099602
vn 0.000000 -0.033392 -0.094260
vn 0.000000 -0.033392 -0.094260
vn 0.000000 -0.054645 -0.083749
vn 0.000000 -0.054645 -0.083749
vn 0.000000 -0.070537 -0.070884
vn 0.000000 -0.070537 -0.070884
vn 0.000000 -0.081293 -0.058235
vn 0.000000 -0.081293 -0.058235
vn 0.000000 -0.088208 -0.047111
vn 0.000000 -0.088208 -0.047111
vn 0.000000 -0.095310 -0.030265
vn 0.000000 -0.095310 -0.030265
vn 0.000000 -0.098144 -0.019178
vn 0.000000 -0.098144 -0.019178
vn 0.000000 -0.099767 -0.006830
vn 0.000000 -0.099767 -0.006830
vn 0.000000 -0.099996 -0.000887
vn 0.000000 -0.099996 -0.000887
vn 0.000000 -0.099978 0.002103
vn 0.000000 -0.099978 0.002103
vn 0.000000 -0.099938 0.003513
vn 0.000000 -0.099938 0.003513
vn 0.000000 -0.099922 0.003958
vn 0.000000 -0.099922 0.003958
vn 0.000000 -0.099953 0.003065
vn 0.000000 -0.099953 0.003065
vn 0.000000 -0.099979 0.002028
vn 0.000000 -0.099979 0.002028
vn 0.000000 -0.099997 0.000772
vn 0.000000 -0.099997 0.000772
vn 0.000000 -0.099999 -0.000433
vn 0.000000 -0.099999 -0.000433
vn 0.000000 -0.099998 -0.000653
vn 0.000000 -0.099998 -0.000653
vn 0.100000 0.000000 0.000000
vn 0.100000 0.000000 0.000000
vn 0.100000 0.000000 0.000000
vn 0.100000 0.000000 0.000000
vn 0.100000 0.000000 0.000000
vn 0.100000 0.000000 0.000000
vn 0.100000 0.000000 0.000000
vn 0.100000 0.000000 0.000000
vn 0.100000 0.000000 0.000000
vn 0.100000 0.000000 0.000000
vn 0.100000 0.000000 0.000000
vn 0.100000 0.000000 0.000000
vn 0.100000 0.000000 0.000000
vn 0.100000 0.000000 0.000000
vn 0.100000 0.000000 0.000000
vn 0.100000 0.000000 0.000000
vn 0.100000 0.000000 0.000000
vn 0.100000 0.000000 0.000000
vn 0.100000 0.000000 0.000000
vn 0.100000 0.000000 0.000000
vn 0.100000 0.000000 0.000000
vn 0.100000 0.000000 0.000000
vn 0.100000 0.000000 0.000000
vn 0.100000 0.000000 0.000000
vn 0.100000 0.000000 0.000000
vn 0.100000 0.000000 0.000000
vn 0.100000 0.000000 0.000000
vn 0.100000 0.000000 0.000000
vn 0.100000 0.000000 0.000000
vn 0.100000 0.000000 0.000000
vn 0.100000 0.000000 0.000000
vn 0.100000 0.000000 0.000000
vn 0.100000 0.000000 0.000000
vn 0.100000 0.000000 0.000000
vn 0.100000 0.000000 0.000000
vn 0.100000 0.000000 0.000000
vn 0.100000 0.000000 0.000000
vn 0.100000 0.000000 0.000000
vn 0.100000 0.000000 0.000000
vn 0.100000 0.000000 0.000000
vn 0.100000 0.000000 0.000000
vn 0.100000 0.000000 0.000000
vn 0.100000 0.000000 0.000000
vn 0.100000 0.000000 0.000000
vn 0.100000 0.000000 0.000000
vn 0.100000 0.000000 0.000000
vn 0.100000 0.000000 0.000000
vn 0.100000 0.000000 0.000000
vn 0.100000 0.000000 0.000000
vn 0.100000 0.000000 0.000000
vn 0.100000 0.000000 0.000000
vn 0.100000 0.000000 0.000000
vn 0.100000 0.000000 0.000000
vn 0.100000 0.000000 0.000000
usemtl Steel_-_Satin
f 2/1/1 17/2/2 1/3/3
f 1/3/3 17/2/2 18/4/4
f 1/3/3 18/4/4 54/5/5
f 54/5/5 18/4/4 19/6/6
f 54/5/5 19/6/6 53/7/7
f 53/7/7 19/6/6 20/8/8
f 53/7/7 20/8/8 52/9/9
f 52/9/9 20/8/8 21/10/10
f 52/9/9 21/10/10 22/11/11
f 3/12/12 12/13/13 2/1/1
f 2/1/1 12/13/13 13/14/14
f 2/1/1 13/14/14 14/15/15
f 4/16/16 5/17/17 3/12/12
f 3/12/12 5/17/17 6/18/18
f 3/12/12 6/18/18 7/19/19
f 7/19/19 8/20/20 3/12/12
f 3/12/12 8/20/20 9/21/21
f 3/12/12 9/21/21 10/22/22
f 10/22/22 11/23/23 3/12/12
f 3/12/12 11/23/23 12/13/13
f 14/15/15 15/24/24 2/1/1
f 2/1/1 15/24/24 16/25/25
f 2/1/1 16/25/25 17/2/2
f 23/26/26 37/27/27 22/11/11
f 22/11/11 37/27/27 38/28/28
f 22/11/11 38/28/28 39/29/29
f 24/30/30 31/31/31 23/26/26
f 23/26/26 31/31/31 32/32/32
f 23/26/26 32/32/32 33/33/33
f 25/34/34 27/35/35 24/30/30
f 24/30/30 27/35/35 28/36/36
f 24/30/30 28/36/36 29/37/37
f 25/34/34 26/38/38 27/35/35
f 29/37/37 30/39/39 24/30/30
f 24/30/30 30/39/39 31/31/31
f 33/33/33 34/40/40 23/26/26
f 23/26/26 34/40/40 35/41/41
f 23/26/26 35/41/41 36/42/42
f 36/42/42 37/27/27 23/26/26
f 22/11/11 39/29/29 52/9/9
f 52/9/9 39/29/29 40/43/43
f 52/9/9 40/43/43 51/44/44
f 51/44/44 40/43/43 50/45/45
f 50/45/45 40/43/43 49/46/46
f 49/46/46 40/43/43 48/47/47
f 48/47/47 40/43/43 47/48/48
f 47/48/48 40/43/43 41/49/49
f 47/48/48 41/49/49 42/50/50
f 42/50/50 43/51/51 47/48/48
f 47/48/48 43/51/51 46/52/52
f 46/52/52 43/51/51 44/53/53
f 46/52/52 44/53/53 45/54/54
f 55/55/55 56/56/56 1/57/57
f 1/57/57 56/56/56 2/58/58
f 2/58/58 56/56/56 57/59/59
f 2/58/58 57/59/59 3/60/60
f 3/60/60 57/59/59 58/61/61
f 3/60/60 58/61/61 4/62/62
f 4/62/62 58/61/61 59/63/63
f 4/62/62 59/63/63 5/64/64
f 5/64/64 59/63/63 60/65/65
f 5/64/64 60/65/65 6/66/66
f 6/66/66 60/65/65 61/67/67
f 6/66/66 61/67/67 7/68/68
f 7/68/68 61/67/67 62/69/69
f 7/68/68 62/69/69 8/70/70
f 8/70/70 62/69/69 63/71/71
f 8/70/70 63/71/71 9/72/72
f 9/72/72 63/71/71 64/73/73
f 9/72/72 64/73/73 10/74/74
f 10/74/74 64/73/73 65/75/75
f 10/74/74 65/75/75 11/76/76
f 11/76/76 65/75/75 66/77/77
f 11/76/76 66/77/77 12/78/78
f 12/78/78 66/77/77 67/79/79
f 12/78/78 67/79/79 13/80/80
f 13/80/80 67/79/79 68/81/81
f 13/80/80 68/81/81 14/82/82
f 14/82/82 68/81/81 69/83/83
f 14/82/82 69/83/83 15/84/84
f 15/84/84 69/83/83 70/85/85
f 15/84/84 70/85/85 16/86/86
f 16/86/86 70/85/85 71/87/87
f 16/86/86 71/87/87 17/88/88
f 17/88/88 71/87/87 72/89/89
f 17/88/88 72/89/89 18/90/90
f 18/90/90 72/89/89 73/91/91
f 18/90/90 73/91/91 19/92/92
f 19/92/92 73/91/91 74/93/93
f 19/92/92 74/93/93 20/94/94
f 20/94/94 74/93/93 75/95/95
f 20/94/94 75/95/95 21/96/96
f 21/96/96 75/95/95 76/97/97
f 21/96/96 76/97/97 22/98/98
f 22/98/98 76/97/97 77/99/99
f 22/98/98 77/99/99 23/100/100
f 23/100/100 77/99/99 78/101/101
f 23/100/100 78/101/101 24/102/102
f 24/102/102 78/101/101 79/103/103
f 24/102/102 79/103/103 25/104/104
f 25/104/104 79/103/103 80/105/105
f 25/104/104 80/105/105 26/106/106
f 26/106/106 80/105/105 81/107/107
f 26/106/106 81/107/107 27/108/108
f 27/108/108 81/107/107 82/109/109
f 27/108/108 82/109/109 28/110/110
f 28/110/110 82/109/109 83/111/111
f 28/110/110 83/111/111 29/112/112
f 29/112/112 83/111/111 84/113/113
f 29/112/112 84/113/113 30/114/114
f 30/114/114 84/113/113 85/115/115
f 30/114/114 85/115/115 31/116/116
f 31/116/116 85/115/115 86/117/117
f 31/116/116 86/117/117 32/118/118
f 32/118/118 86/117/117 87/119/119
f 32/118/118 87/119/119 33/120/120
f 33/120/120 87/119/119 88/121/121
f 33/120/120 88/121/121 34/122/122
f 34/122/122 88/121/121 89/123/123
f 34/122/122 89/123/123 35/124/124
f 35/124/124 89/123/123 90/125/125
f 35/124/124 90/125/125 36/126/126
f 36/126/126 90/125/125 91/127/127
f 36/126/126 91/127/127 37/128/128
f 37/128/128 91/127/127 92/129/129
f 37/128/128 92/129/129 38/130/130
f 38/130/130 92/129/129 93/131/131
f 38/130/130 93/131/131 39/132/132
f 39/132/132 93/131/131 94/133/133
f 39/132/132 94/133/133 40/134/134
f 40/134/134 94/133/133 95/135/135
f 40/134/134 95/135/135 41/136/136
f 41/136/136 95/135/135 96/137/137
f 41/136/136 96/137/137 42/138/138
f 42/138/138 96/137/137 97/139/139
f 42/138/138 97/139/139 43/140/140
f 43/140/140 97/139/139 98/141/141
f 43/140/140 98/141/141 44/142/142
f 44/142/142 98/141/141 99/143/143
f 44/142/142 99/143/143 45/144/144
f 45/144/144 99/143/143 100/145/145
f 45/144/144 100/145/145 46/146/146
f 46/146/146 100/145/145 101/147/147
f 46/146/146 101/147/147 47/148/148
f 47/148/148 101/147/147 102/149/149
f 47/148/148 102/149/149 48/150/150
f 48/150/150 102/149/149 103/151/151
f 48/150/150 103/151/151 49/152/152
f 49/152/152 103/151/151 104/153/153
f 49/152/152 104/153/153 50/154/154
f 50/154/154 104/153/153 105/155/155
f 50/154/154 105/155/155 51/156/156
f 51/156/156 105/155/155 106/157/157
f 51/156/156 106/157/157 52/158/158
f 52/158/158 106/157/157 107/159/159
f 52/158/158 107/159/159 53/160/160
f 53/160/160 107/159/159 108/161/161
f 53/160/160 108/161/161 54/162/162
f 54/162/162 108/161/161 55/163/55
f 54/162/162 55/163/55 1/164/57
f 108/165/163 72/166/164 55/167/165
f 55/167/165 72/166/164 71/168/166
f 55/167/165 71/168/166 56/169/167
f 56/169/167 71/168/166 70/170/168
f 56/169/167 70/170/168 69/171/169
f 72/166/164 108/165/163 73/172/170
f 73/172/170 108/165/163 107/173/171
f 73/172/170 107/173/171 74/174/172
f 74/174/172 107/173/171 75/175/173
f 75/175/173 107/173/171 106/176/174
f 75/175/173 106/176/174 105/177/175
f 105/177/175 104/178/176 75/175/173
f 75/175/173 104/178/176 94/179/177
f 75/175/173 94/179/177 76/180/178
f 76/180/178 94/179/177 93/181/179
f 76/180/178 93/181/179 92/182/180
f 104/178/176 103/183/181 94/179/177
f 94/179/177 103/183/181 102/184/182
f 94/179/177 102/184/182 101/185/183
f 100/186/184 97/187/185 101/185/183
f 101/185/183 97/187/185 96/188/186
f 101/185/183 96/188/186 95/189/187
f 99/190/188 98/191/189 100/186/184
f 100/186/184 98/191/189 97/187/185
f 95/189/187 94/179/177 101/185/183
f 92/182/180 91/192/190 76/180/178
f 76/180/178 91/192/190 77/193/191
f 77/193/191 91/192/190 90/194/192
f 77/193/191 90/194/192 89/195/193
f 89/195/193 88/196/194 77/193/191
f 77/193/191 88/196/194 87/197/195
f 77/193/191 87/197/195 86/198/196
f 86/198/196 85/199/197 77/193/191
f 77/193/191 85/199/197 78/200/198
f 78/200/198 85/199/197 84/201/199
f 78/200/198 84/201/199 83/202/200
f 83/202/200 82/203/201 78/200/198
f 78/200/198 82/203/201 81/204/202
f 78/200/198 81/204/202 79/205/203
f 79/205/203 81/204/202 80/206/204
f 69/171/169 68/207/205 56/169/167
f 56/169/167 68/207/205 67/208/206
f 56/169/167 67/208/206 66/209/207
f 56/169/167 66/209/207 57/210/208
f 57/210/208 66/209/207 65/211/209
f 57/210/208 65/211/209 64/212/210
f 64/212/210 63/213/211 57/210/208
f 57/210/208 63/213/211 62/214/212
f 57/210/208 62/214/212 61/215/213
f 61/215/213 60/216/214 57/210/208
f 57/210/208 60/216/214 59/217/215
f 57/210/208 59/217/215 58/218/216

# 108 vertices
# 218 texture params
# 216 normals
# 212 facets

# 1 groups
