# WaveFront *.obj file (generated by Autodesk ATF)

mtllib 623ae213-dca0-4ba0-b2b0-21cd90006d07.mtl

g Body1

v 4.002012 5.399390 -50.000000
v 5.260677 5.493200 -50.000000
v 6.502731 5.268836 -50.000000
v 7.649029 4.740595 -50.000000
v 8.626526 3.942137 -50.000000
v 9.372936 2.924341 -50.000000
v 9.840696 1.752062 -50.000000
v 10.000000 0.500000 -50.000000
v 10.000000 -0.499996 -50.000000
v 9.840697 -1.752059 -50.000000
v 9.372938 -2.924338 -50.000000
v 8.626528 -3.942135 -50.000000
v 7.649030 -4.740594 -50.000000
v 6.502732 -5.268836 -50.000000
v 5.260677 -5.493200 -50.000000
v 4.002012 -5.399390 -50.000000
v -20.099799 -0.489939 -50.000000
v -20.217488 -0.450221 -50.000000
v -20.321755 -0.382719 -50.000000
v -20.406165 -0.291598 -50.000000
v -20.465511 -0.182483 -50.000000
v -20.496128 -0.062105 -50.000000
v -20.496128 0.062105 -50.000000
v -20.465511 0.182483 -50.000000
v -20.406165 0.291598 -50.000000
v -20.321755 0.382719 -50.000000
v -20.217488 0.450221 -50.000000
v -20.099799 0.489939 -50.000000
v 10.000000 0.500000 50.000000
v 10.000000 -0.499996 50.000000
v 9.840697 -1.752059 50.000000
v 9.372938 -2.924338 50.000000
v 8.626528 -3.942135 50.000000
v 7.649030 -4.740594 50.000000
v 6.502732 -5.268836 50.000000
v 5.260677 -5.493200 50.000000
v 4.002012 -5.399390 50.000000
v -20.099799 -0.489939 50.000000
v -20.217488 -0.450221 50.000000
v -20.321755 -0.382719 50.000000
v -20.406165 -0.291598 50.000000
v -20.465511 -0.182483 50.000000
v -20.496128 -0.062105 50.000000
v -20.496128 0.062105 50.000000
v -20.465511 0.182483 50.000000
v -20.406165 0.291598 50.000000
v -20.321755 0.382719 50.000000
v -20.217488 0.450221 50.000000
v -20.099799 0.489939 50.000000
v 4.002012 5.399390 50.000000
v 5.260677 5.493200 50.000000
v 6.502731 5.268836 50.000000
v 7.649029 4.740595 50.000000
v 8.626526 3.942137 50.000000
v 9.372936 2.924341 50.000000
v 9.840696 1.752062 50.000000
vt -1.051068 0.549320 0.000000
vt -1.175273 0.526884 0.000000
vt -0.925201 0.539939 0.000000
vt -1.289903 0.474060 0.000000
vt -1.387653 0.394214 0.000000
vt -1.462294 0.292434 0.000000
vt -1.509070 0.175206 0.000000
vt -1.525000 0.050000 0.000000
vt -1.525000 -0.050000 0.000000
vt 1.484980 -0.048994 0.000000
vt 1.484980 0.048994 0.000000
vt 1.524613 -0.006211 0.000000
vt 1.524613 0.006211 0.000000
vt -0.925201 -0.539939 0.000000
vt -1.509070 -0.175206 0.000000
vt -1.462294 -0.292434 0.000000
vt -1.387653 -0.394214 0.000000
vt -1.289903 -0.474059 0.000000
vt -1.175273 -0.526884 0.000000
vt -1.051068 -0.549320 0.000000
vt 1.496749 -0.045022 0.000000
vt 1.507175 -0.038272 0.000000
vt 1.515617 -0.029160 0.000000
vt 1.521551 -0.018248 0.000000
vt 1.521551 0.018248 0.000000
vt 1.515617 0.029160 0.000000
vt 1.507175 0.038272 0.000000
vt 1.496749 0.045022 0.000000
vt 0.100000 5.000000 0.000000
vt -0.000000 5.000000 0.000000
vt 0.100000 -5.000000 0.000000
vt -0.000000 -5.000000 0.000000
vt 5.000000 0.885872 0.000000
vt -5.000000 0.885872 0.000000
vt 5.000000 0.759319 0.000000
vt -5.000000 0.759319 0.000000
vt 5.000000 0.632766 0.000000
vt -5.000000 0.632766 0.000000
vt 5.000000 0.506213 0.000000
vt -5.000000 0.506213 0.000000
vt 5.000000 0.379659 0.000000
vt -5.000000 0.379659 0.000000
vt 5.000000 0.253106 0.000000
vt -5.000000 0.253106 0.000000
vt 5.000000 0.126553 0.000000
vt -5.000000 0.126553 0.000000
vt 5.000000 -0.000000 0.000000
vt -5.000000 -0.000000 0.000000
vt 2.459675 5.000000 0.000000
vt 0.000000 5.000000 0.000000
vt 2.459675 -5.000000 0.000000
vt 0.000000 -5.000000 0.000000
vt 5.000000 0.136985 0.000000
vt -5.000000 0.136985 0.000000
vt 5.000000 0.124532 0.000000
vt -5.000000 0.124532 0.000000
vt 5.000000 0.112079 0.000000
vt -5.000000 0.112079 0.000000
vt 5.000000 0.099625 0.000000
vt -5.000000 0.099625 0.000000
vt 5.000000 0.087172 0.000000
vt -5.000000 0.087172 0.000000
vt 5.000000 0.074719 0.000000
vt -5.000000 0.074719 0.000000
vt 5.000000 0.062266 0.000000
vt -5.000000 0.062266 0.000000
vt 5.000000 0.049813 0.000000
vt -5.000000 0.049813 0.000000
vt 5.000000 0.037360 0.000000
vt -5.000000 0.037360 0.000000
vt 5.000000 0.024906 0.000000
vt -5.000000 0.024906 0.000000
vt 5.000000 0.012453 0.000000
vt -5.000000 0.012453 0.000000
vt 5.000000 0.000000 0.000000
vt -5.000000 0.000000 0.000000
vt 2.459675 5.000000 0.000000
vt 0.000000 5.000000 0.000000
vt 2.459675 -5.000000 0.000000
vt 0.000000 -5.000000 0.000000
vt 5.000000 0.885872 0.000000
vt -5.000000 0.885872 0.000000
vt 5.000000 0.759319 0.000000
vt -5.000000 0.759319 0.000000
vt 5.000000 0.632766 0.000000
vt -5.000000 0.632766 0.000000
vt 5.000000 0.506212 0.000000
vt -5.000000 0.506212 0.000000
vt 5.000000 0.379659 0.000000
vt -5.000000 0.379659 0.000000
vt 5.000000 0.253106 0.000000
vt -5.000000 0.253106 0.000000
vt 5.000000 0.126553 0.000000
vt -5.000000 0.126553 0.000000
vt 5.000000 0.000000 0.000000
vt -5.000000 0.000000 0.000000
vt 1.525000 -0.050000 0.000000
vt 1.525000 0.050000 0.000000
vt 0.925201 0.539939 0.000000
vt 1.509070 0.175206 0.000000
vt 1.462294 0.292434 0.000000
vt 1.387653 0.394214 0.000000
vt 1.289903 0.474060 0.000000
vt 1.175273 0.526884 0.000000
vt 1.051068 0.549320 0.000000
vt -1.484980 -0.048994 0.000000
vt -1.484980 0.048994 0.000000
vt -1.524613 -0.006211 0.000000
vt -1.524613 0.006211 0.000000
vt -1.521551 0.018248 0.000000
vt -1.515617 0.029160 0.000000
vt -1.507175 0.038272 0.000000
vt -1.496749 0.045022 0.000000
vt -1.521551 -0.018248 0.000000
vt -1.515617 -0.029160 0.000000
vt -1.507175 -0.038272 0.000000
vt -1.496749 -0.045022 0.000000
vt 0.925201 -0.539939 0.000000
vt 1.509070 -0.175206 0.000000
vt 1.462294 -0.292434 0.000000
vt 1.387653 -0.394214 0.000000
vt 1.289903 -0.474059 0.000000
vt 1.175273 -0.526884 0.000000
vt 1.051068 -0.549320 0.000000
vn 0.000000 0.000000 -0.100000
vn 0.000000 0.000000 -0.100000
vn 0.000000 0.000000 -0.100000
vn 0.000000 0.000000 -0.100000
vn 0.000000 0.000000 -0.100000
vn 0.000000 0.000000 -0.100000
vn 0.000000 0.000000 -0.100000
vn 0.000000 0.000000 -0.100000
vn 0.000000 0.000000 -0.100000
vn 0.000000 0.000000 -0.100000
vn 0.000000 0.000000 -0.100000
vn 0.000000 0.000000 -0.100000
vn 0.000000 0.000000 -0.100000
vn 0.000000 0.000000 -0.100000
vn 0.000000 0.000000 -0.100000
vn 0.000000 0.000000 -0.100000
vn 0.000000 0.000000 -0.100000
vn 0.000000 0.000000 -0.100000
vn 0.000000 0.000000 -0.100000
vn 0.000000 0.000000 -0.100000
vn 0.000000 0.000000 -0.100000
vn 0.000000 0.000000 -0.100000
vn 0.000000 0.000000 -0.100000
vn 0.000000 0.000000 -0.100000
vn 0.000000 0.000000 -0.100000
vn 0.000000 0.000000 -0.100000
vn 0.000000 0.000000 -0.100000
vn 0.000000 0.000000 -0.100000
vn 0.100000 -0.000000 0.000000
vn 0.100000 -0.000000 0.000000
vn 0.100000 -0.000000 0.000000
vn 0.100000 -0.000000 0.000000
vn 0.100000 0.000000 0.000000
vn 0.100000 0.000000 0.000000
vn 0.096814 -0.025041 0.000000
vn 0.096814 -0.025041 0.000000
vn 0.087459 -0.048487 0.000000
vn 0.087459 -0.048487 0.000000
vn 0.072531 -0.068843 0.000000
vn 0.072531 -0.068843 0.000000
vn 0.052981 -0.084812 0.000000
vn 0.052981 -0.084812 0.000000
vn 0.030055 -0.095377 0.000000
vn 0.030055 -0.095377 0.000000
vn 0.005214 -0.099864 0.000000
vn 0.005214 -0.099864 0.000000
vn -0.019960 -0.097988 0.000000
vn -0.019960 -0.097988 0.000000
vn -0.019960 -0.097988 0.000000
vn -0.019960 -0.097988 0.000000
vn -0.043498 -0.090044 0.000000
vn -0.043498 -0.090044 0.000000
vn -0.064351 -0.076544 0.000000
vn -0.064351 -0.076544 0.000000
vn -0.081233 -0.058320 0.000000
vn -0.081233 -0.058320 0.000000
vn -0.093102 -0.036497 0.000000
vn -0.093102 -0.036497 0.000000
vn -0.099226 -0.012421 0.000000
vn -0.099226 -0.012421 0.000000
vn -0.099226 0.012421 -0.000000
vn -0.099226 0.012421 -0.000000
vn -0.093102 0.036497 -0.000000
vn -0.093102 0.036497 -0.000000
vn -0.081233 0.058320 -0.000000
vn -0.081233 0.058320 -0.000000
vn -0.064351 0.076544 -0.000000
vn -0.064351 0.076544 -0.000000
vn -0.043498 0.090044 -0.000000
vn -0.043498 0.090044 -0.000000
vn -0.019960 0.097988 -0.000000
vn -0.019960 0.097988 -0.000000
vn -0.019960 0.097988 0.000000
vn -0.019960 0.097988 0.000000
vn 0.005214 0.099864 0.000000
vn 0.005214 0.099864 0.000000
vn 0.030055 0.095377 0.000000
vn 0.030055 0.095377 0.000000
vn 0.052981 0.084812 0.000000
vn 0.052981 0.084812 0.000000
vn 0.072531 0.068843 0.000000
vn 0.072531 0.068843 0.000000
vn 0.087459 0.048487 0.000000
vn 0.087459 0.048487 0.000000
vn 0.096814 0.025041 0.000000
vn 0.096814 0.025041 0.000000
vn 0.100000 0.000000 0.000000
vn 0.100000 0.000000 0.000000
vn 0.000000 0.000000 0.100000
vn 0.000000 0.000000 0.100000
vn 0.000000 0.000000 0.100000
vn 0.000000 0.000000 0.100000
vn 0.000000 0.000000 0.100000
vn 0.000000 0.000000 0.100000
vn 0.000000 0.000000 0.100000
vn 0.000000 0.000000 0.100000
vn 0.000000 0.000000 0.100000
vn 0.000000 0.000000 0.100000
vn 0.000000 0.000000 0.100000
vn 0.000000 0.000000 0.100000
vn 0.000000 0.000000 0.100000
vn 0.000000 0.000000 0.100000
vn 0.000000 0.000000 0.100000
vn 0.000000 0.000000 0.100000
vn 0.000000 0.000000 0.100000
vn 0.000000 0.000000 0.100000
vn 0.000000 0.000000 0.100000
vn 0.000000 0.000000 0.100000
vn 0.000000 0.000000 0.100000
vn 0.000000 0.000000 0.100000
vn 0.000000 0.000000 0.100000
vn 0.000000 0.000000 0.100000
vn 0.000000 0.000000 0.100000
vn 0.000000 0.000000 0.100000
vn 0.000000 0.000000 0.100000
vn 0.000000 0.000000 0.100000
usemtl Steel_-_Satin
f 2/1/1 3/2/2 1/3/3
f 1/3/3 3/2/2 4/4/4
f 1/3/3 4/4/4 5/5/5
f 5/5/5 6/6/6 1/3/3
f 1/3/3 6/6/6 7/7/7
f 1/3/3 7/7/7 8/8/8
f 8/8/8 9/9/9 1/3/3
f 1/3/3 9/9/9 17/10/10
f 1/3/3 17/10/10 28/11/11
f 28/11/11 17/10/10 22/12/12
f 28/11/11 22/12/12 23/13/13
f 17/10/10 9/9/9 16/14/14
f 16/14/14 9/9/9 10/15/15
f 16/14/14 10/15/15 11/16/16
f 11/16/16 12/17/17 16/14/14
f 16/14/14 12/17/17 13/18/18
f 16/14/14 13/18/18 14/19/19
f 14/19/19 15/20/20 16/14/14
f 18/21/21 19/22/22 17/10/10
f 17/10/10 19/22/22 20/23/23
f 17/10/10 20/23/23 21/24/24
f 21/24/24 22/12/12 17/10/10
f 23/13/13 24/25/25 28/11/11
f 28/11/11 24/25/25 25/26/26
f 28/11/11 25/26/26 26/27/27
f 26/27/27 27/28/28 28/11/11
f 29/29/29 30/30/30 8/31/31
f 8/31/31 30/30/30 9/32/32
f 9/33/33 30/34/34 10/35/35
f 10/35/35 30/34/34 31/36/36
f 10/35/35 31/36/36 11/37/37
f 11/37/37 31/36/36 32/38/38
f 11/37/37 32/38/38 12/39/39
f 12/39/39 32/38/38 33/40/40
f 12/39/39 33/40/40 13/41/41
f 13/41/41 33/40/40 34/42/42
f 13/41/41 34/42/42 14/43/43
f 14/43/43 34/42/42 35/44/44
f 14/43/43 35/44/44 15/45/45
f 15/45/45 35/44/44 36/46/46
f 15/45/45 36/46/46 16/47/47
f 16/47/47 36/46/46 37/48/48
f 37/49/48 38/50/49 16/51/47
f 16/51/47 38/50/49 17/52/50
f 17/53/50 38/54/49 18/55/51
f 18/55/51 38/54/49 39/56/52
f 18/55/51 39/56/52 19/57/53
f 19/57/53 39/56/52 40/58/54
f 19/57/53 40/58/54 20/59/55
f 20/59/55 40/58/54 41/60/56
f 20/59/55 41/60/56 21/61/57
f 21/61/57 41/60/56 42/62/58
f 21/61/57 42/62/58 22/63/59
f 22/63/59 42/62/58 43/64/60
f 22/63/59 43/64/60 23/65/61
f 23/65/61 43/64/60 44/66/62
f 23/65/61 44/66/62 24/67/63
f 24/67/63 44/66/62 45/68/64
f 24/67/63 45/68/64 25/69/65
f 25/69/65 45/68/64 46/70/66
f 25/69/65 46/70/66 26/71/67
f 26/71/67 46/70/66 47/72/68
f 26/71/67 47/72/68 27/73/69
f 27/73/69 47/72/68 48/74/70
f 27/73/69 48/74/70 28/75/71
f 28/75/71 48/74/70 49/76/72
f 49/77/72 50/78/73 28/79/71
f 28/79/71 50/78/73 1/80/74
f 1/81/74 50/82/73 2/83/75
f 2/83/75 50/82/73 51/84/76
f 2/83/75 51/84/76 3/85/77
f 3/85/77 51/84/76 52/86/78
f 3/85/77 52/86/78 4/87/79
f 4/87/79 52/86/78 53/88/80
f 4/87/79 53/88/80 5/89/81
f 5/89/81 53/88/80 54/90/82
f 5/89/81 54/90/82 6/91/83
f 6/91/83 54/90/82 55/92/84
f 6/91/83 55/92/84 7/93/85
f 7/93/85 55/92/84 56/94/86
f 7/93/85 56/94/86 8/95/87
f 8/95/87 56/94/86 29/96/88
f 30/97/89 29/98/90 50/99/91
f 50/99/91 29/98/90 56/100/92
f 50/99/91 56/100/92 55/101/93
f 55/101/93 54/102/94 50/99/91
f 50/99/91 54/102/94 53/103/95
f 50/99/91 53/103/95 52/104/96
f 52/104/96 51/105/97 50/99/91
f 30/97/89 50/99/91 38/106/98
f 38/106/98 50/99/91 49/107/99
f 38/106/98 49/107/99 43/108/100
f 43/108/100 49/107/99 44/109/101
f 44/109/101 49/107/99 45/110/102
f 45/110/102 49/107/99 46/111/103
f 46/111/103 49/107/99 47/112/104
f 47/112/104 49/107/99 48/113/105
f 43/108/100 42/114/106 38/106/98
f 38/106/98 42/114/106 41/115/107
f 38/106/98 41/115/107 40/116/108
f 40/116/108 39/117/109 38/106/98
f 38/106/98 37/118/110 30/97/89
f 30/97/89 37/118/110 31/119/111
f 31/119/111 37/118/110 32/120/112
f 32/120/112 37/118/110 33/121/113
f 33/121/113 37/118/110 34/122/114
f 34/122/114 37/118/110 35/123/115
f 35/123/115 37/118/110 36/124/116

# 56 vertices
# 124 texture params
# 116 normals
# 108 facets

# 1 groups
